/* XPM */
static char * hGuiStatisticInsert_xpm[] = {
"22 22 2 1",
" 	c None",
".	c #800080",
"                      ",
"                      ",
"                      ",
"   ..............     ",
"   ....        ...    ",
"    ....         .    ",
"     ....        .    ",
"      ....            ",
"       ....           ",
"        ....          ",
"         ....         ",
"          ...         ",
"         ...          ",
"        ...           ",
"       ...            ",
"      ...             ",
"     ...         .    ",
"    ...          .    ",
"   ...         ...    ",
"   ..............     ",
"                      ",
"                      "};
