/* XPM */
static char *stock_zoom_in_24[]={
"24 24 142 2",
"Qt c None",
"#V c #000000",
"ae c #010101",
"#O c #020202",
"#9 c #030303",
"#J c #050505",
"#v c #060606",
"#n c #090909",
"#P c #0a0a0a",
"#K c #0b0b0b",
"#W c #0c0c0c",
"#e c #0e0e0e",
".5 c #0f0f0f",
".R c #101010",
"#w c #111111",
"#f c #121212",
".C c #131313",
"#o c #141414",
"#g c #1b1b1b",
".p c #1c1c1c",
".6 c #1f1f1f",
".o c #202020",
".T c #212121",
".F c #222222",
".D c #232323",
".S c #242424",
".d c #262626",
".s c #272727",
".c c #292929",
"ad c #2b2b2b",
".b c #2d2d2d",
".g c #2e2e2e",
".h c #303030",
"a. c #313131",
".a c #343434",
".e c #353535",
".q c #373737",
"al c #3a3a3a",
"#1 c #3b3b3b",
"ai c #3c3c3c",
"#Y c #3f3f3f",
".r c #404040",
"#F c #414141",
"#A c #424242",
".4 c #434343",
"#z c #444444",
"## c #454545",
".# c #494949",
".B c #4c4c4c",
".E c #4f4f4f",
"#5 c #515151",
"#m c #575757",
".U c #5b5b5b",
".f c #5d5d5d",
".Q c #5e5e5e",
"#Q c #5f5f5f",
".t c #616161",
".n c #676767",
"aj c #686868",
"#h c #6d6d6d",
".i c #737373",
".G c #757575",
"ah c #777777",
"ak c #797979",
"af c #7a7a7a",
"ac c #909090",
"#N c #939393",
"a# c #999999",
"ag c #9a9a9a",
"#u c #9b9b9b",
".m c #9d9d9d",
".j c #a1a1a1",
"#L c #a5a5a5",
".A c #a7a7a7",
"#p c #a8a8a8",
"#d c #ababab",
".l c #b2b2b2",
".k c #b4b4b4",
"ab c #b6b6b6",
"#8 c #b8b8b8",
".7 c #b9b9b9",
"#I c #bababa",
"aa c #bbbbbb",
".P c #bcbcbc",
"#4 c #bdbdbd",
"#C c #bfbfbf",
".z c #c1c1c1",
".3 c #c2c2c2",
"#x c #c5c5c5",
"#D c #c6c6c6",
"#6 c #c7c7c7",
"#3 c #c8c8c8",
".y c #c9c9c9",
".u c #cacaca",
"#0 c #cbcbcb",
".V c #cccccc",
"#7 c #cdcdcd",
".x c #cecece",
".v c #cfcfcf",
".w c #d0d0d0",
"#M c #d1d1d1",
".O c #d2d2d2",
".H c #d3d3d3",
"#U c #d4d4d4",
"#2 c #d5d5d5",
".8 c #d6d6d6",
".W c #d7d7d7",
"#q c #d8d8d8",
"#R c #d9d9d9",
"#Z c #dadada",
".I c #dbdbdb",
"#t c #dcdcdc",
"#y c #dfdfdf",
"#H c #e0e0e0",
".2 c #e1e1e1",
"#X c #e2e2e2",
"#E c #e3e3e3",
"#c c #e4e4e4",
".N c #e5e5e5",
"#l c #e6e6e6",
".J c #e7e7e7",
"#T c #e9e9e9",
"#G c #eaeaea",
"#S c #ebebeb",
"#b c #ececec",
"#B c #ededed",
"#k c #eeeeee",
".K c #efefef",
".1 c #f0f0f0",
".M c #f1f1f1",
"#a c #f2f2f2",
".L c #f3f3f3",
"#s c #f4f4f4",
".X c #f5f5f5",
"#r c #f6f6f6",
".0 c #f8f8f8",
".9 c #f9f9f9",
".Y c #fafafa",
".Z c #fbfbfb",
"#j c #fcfcfc",
"#. c #fdfdfd",
"#i c #fefefe",
"QtQtQtQtQtQtQtQtQtQtQtQtQtQtQtQtQtQtQtQtQtQtQtQt",
"QtQtQtQtQtQt.#.a.b.c.d.d.d.eQtQtQtQtQtQtQtQtQtQt",
"QtQtQtQt.f.g.h.i.j.k.l.m.n.o.p.qQtQtQtQtQtQtQtQt",
"QtQtQt.r.s.t.k.u.v.w.x.y.z.A.B.C.DQtQtQtQtQtQtQt",
"QtQt.E.F.G.u.H.I.J.K.L.M.N.O.P.Q.R.SQtQtQtQtQtQt",
"QtQt.T.U.V.W.N.X.Y.Z.Y.0.X.1.2.3.4.5QtQtQtQtQtQt",
"Qt.h.6.7.8.J.9.Z#.####.Z.0#a#b#c#d#e#fQtQtQtQtQt",
"Qt#g#h.O.2.X.Y#.#i#####j.9.X#k#l.I#m#nQtQtQtQtQt",
"Qt#o#p#q#k#r.9#j#i####.Z.0#s#k#l#t#u#vQtQtQtQtQt",
"Qt#w#x#y.K.X#z#z#######z.4#A#B.N.I#C#vQtQtQtQtQt",
"Qt#e#D#E#b#a.4#z#z#z#z.4#A#F#G#H.W#I#JQtQtQtQtQt",
"Qt#K#L.2.J#B.M#s#r.4.4.L.K#b#c.I#M#N#OQtQtQtQtQt",
"Qt#P#Q#R.2#l#S#k.K#F#F#B#T#c.I#U.u.B#VQtQtQtQtQt",
"Qt#W#P.k#q#t#X.N#l#Y#Y#E#y#Z#U#0.j#O#VQtQtQtQtQt",
"Qt#V#v#1.V.O#U#Z.I#Z.I#q#2.w#3#4.g#VQtQtQtQtQtQt",
"QtQt#J#J#5.3#6#0.V#7#0#0#3.3#8###V#VQtQtQtQtQtQt",
"QtQt#V#9#9a.a#aa#4.P.P.Pabacad#V#V#V#VQtQtQtQtQt",
"QtQtQt#V#Vae#9#Fafagagahai#V#V#V#V#V#V#V#VQtQtQt",
"QtQtQtQtQt#V#V#V#V#V#V#V#V#V#V#V#V.o.o#V#V#VQtQt",
"QtQtQtQtQtQtQt#V#V#V#V#V#V#VQtQt#V#Vaj.a#V#V#VQt",
"QtQtQtQtQtQtQtQtQtQtQtQtQtQtQtQtQt#V#Vakal#V#V#V",
"QtQtQtQtQtQtQtQtQtQtQtQtQtQtQtQtQt#V#V#Vaj.6#V#V",
"QtQtQtQtQtQtQtQtQtQtQtQtQtQtQtQtQtQt#V#V#V#V#V#V",
"QtQtQtQtQtQtQtQtQtQtQtQtQtQtQtQtQtQtQt#V#V#VQtQt"};
