/* XPM */
static char * hGuiEventsInsert_xpm[] = {
"22 22 205 2",
"  	c None",
". 	c #3995E5",
"+ 	c #449DE8",
"@ 	c #4BA0EA",
"# 	c #479BE7",
"$ 	c #4395E5",
"% 	c #3F8FE2",
"& 	c #3A89E0",
"* 	c #3683DD",
"= 	c #327DDB",
"- 	c #2D77D8",
"; 	c #2971D6",
"> 	c #246BD3",
", 	c #2065D1",
"' 	c #1B5FCE",
") 	c #1759CC",
"! 	c #1253C9",
"~ 	c #0E4DC7",
"{ 	c #0A47C4",
"] 	c #0742C2",
"^ 	c #053FBF",
"/ 	c #0238B2",
"( 	c #0032A4",
"_ 	c #8BCFFF",
": 	c #84C9FF",
"< 	c #7DC1FF",
"[ 	c #75BAFF",
"} 	c #6DB2FF",
"| 	c #65AAFF",
"1 	c #5DA1FF",
"2 	c #5499FF",
"3 	c #4B90FF",
"4 	c #4287FF",
"5 	c #397FFF",
"6 	c #3076FF",
"7 	c #276DFF",
"8 	c #1E64FF",
"9 	c #155BFF",
"0 	c #0C52FF",
"a 	c #044AFF",
"b 	c #0349FF",
"c 	c #0340F1",
"d 	c #0032AB",
"e 	c #4DA3EC",
"f 	c #84C8FF",
"g 	c #7EC2FF",
"h 	c #77BBFF",
"i 	c #70B4FF",
"j 	c #68ADFF",
"k 	c #60A5FF",
"l 	c #589DFF",
"m 	c #5095FF",
"n 	c #488DFF",
"o 	c #3F84FF",
"p 	c #367BFF",
"q 	c #2D73FF",
"r 	c #246AFF",
"s 	c #1C61FF",
"t 	c #1358FF",
"u 	c #0A4FFF",
"v 	c #0343F6",
"w 	c #0132B1",
"x 	c #5BA8EB",
"y 	c #BFE1FF",
"z 	c #BCDEFF",
"A 	c #B9DBFF",
"B 	c #B5D7FF",
"C 	c #B1D4FF",
"D 	c #AED0FF",
"E 	c #AACCFF",
"F 	c #A6C8FF",
"G 	c #A2C4FF",
"H 	c #9DC0FF",
"I 	c #99BCFF",
"J 	c #95B8FF",
"K 	c #90B3FF",
"L 	c #8CAFFF",
"M 	c #87AAFF",
"N 	c #82A5FE",
"O 	c #7FA2FE",
"P 	c #7EA1FD",
"Q 	c #7DA0FD",
"R 	c #7A9AF5",
"S 	c #1D48B3",
"T 	c #6AAFEB",
"U 	c #FFFFFF",
"V 	c #FEFEFF",
"W 	c #FDFDFE",
"X 	c #FBFBFC",
"Y 	c #F9F9FB",
"Z 	c #F7F7FA",
"` 	c #F6F6F9",
" .	c #F0EFF4",
"..	c #385EB5",
"+.	c #69AEEA",
"@.	c #F4F4F8",
"#.	c #EEEDF3",
"$.	c #385DB4",
"%.	c #69ACE9",
"&.	c #848484",
"*.	c #7F7F7F",
"=.	c #808080",
"-.	c #7E7E7F",
";.	c #7D7D7E",
">.	c #7C7C7D",
",.	c #7B7B7D",
"'.	c #7B7B7C",
").	c #7A7A7C",
"!.	c #F2F2F7",
"~.	c #ECEBF2",
"{.	c #375CB4",
"].	c #68AAE8",
"^.	c #FBFBFD",
"/.	c #F1F1F6",
"(.	c #E9E9F0",
"_.	c #365BB3",
":.	c #67A9E7",
"<.	c #F8F8FB",
"[.	c #F3F3F7",
"}.	c #EFEFF5",
"|.	c #E7E7EE",
"1.	c #355AB2",
"2.	c #66A7E6",
"3.	c #858585",
"4.	c #7C7C7E",
"5.	c #79797B",
"6.	c #78787B",
"7.	c #7B7B7E",
"8.	c #EDEDF4",
"9.	c #E5E5ED",
"0.	c #3459B2",
"a.	c #65A6E5",
"b.	c #F9F9FC",
"c.	c #ECECF3",
"d.	c #E3E3EC",
"e.	c #3358B1",
"f.	c #64A5E4",
"g.	c #F6F6FA",
"h.	c #EAEAF2",
"i.	c #E1E1EA",
"j.	c #3358B0",
"k.	c #63A3E3",
"l.	c #8D8D8D",
"m.	c #8A8A8C",
"n.	c #77777A",
"o.	c #76767A",
"p.	c #767679",
"q.	c #808085",
"r.	c #E8E8F1",
"s.	c #DFDFE9",
"t.	c #3257B0",
"u.	c #62A2E2",
"v.	c #FAFAFC",
"w.	c #F4F4F9",
"x.	c #EEEEF4",
"y.	c #E7E7F0",
"z.	c #DEDDE8",
"A.	c #62A0E1",
"B.	c #E5E5EF",
"C.	c #DCDCE7",
"D.	c #619FE1",
"E.	c #8A8A8B",
"F.	c #87878A",
"G.	c #757579",
"H.	c #747478",
"I.	c #737378",
"J.	c #7E7E83",
"K.	c #E3E3EE",
"L.	c #DBDBE6",
"M.	c #609DDF",
"N.	c #F3F3F8",
"O.	c #F1F1F7",
"P.	c #E2E2ED",
"Q.	c #DAD9E6",
"R.	c #5E9ADE",
"S.	c #FAFAFB",
"T.	c #F9F9FA",
"U.	c #F7F6F9",
"V.	c #F5F4F7",
"W.	c #F2F2F6",
"X.	c #F1F0F5",
"Y.	c #EFEEF3",
"Z.	c #EDECF2",
"`.	c #EBEAF1",
" +	c #E9E8EF",
".+	c #E7E6EE",
"++	c #E4E4ED",
"@+	c #E3E2EB",
"#+	c #E1E0EA",
"$+	c #D4D3E0",
"%+	c #357FD4",
"&+	c #5791D7",
"*+	c #548CD4",
"=+	c #5188D1",
"-+	c #4E83CE",
";+	c #4B7ECA",
">+	c #487AC7",
",+	c #4575C4",
"'+	c #4271C1",
")+	c #406CBE",
"!+	c #3D68BB",
"~+	c #3A63B8",
"{+	c #375FB5",
"]+	c #345AB2",
"^+	c #0C3BA7",
"                                            ",
". + @ # $ % & * = - ; > , ' ) ! ~ { ] ^ / ( ",
"+ _ : < [ } | 1 2 3 4 5 6 7 8 9 0 a b b c d ",
"e f g h i j k l m n o p q r s t u b b b v w ",
"x y z A B C D E F G H I J K L M N O P Q R S ",
"T U U U U U U U U U U U U U V W X Y Z `  ...",
"+.U U U U U U U U U U U U V W X Y Z ` @.#.$.",
"%.U U &.*.*.*.U U =.=.*.*.-.;.>.,.'.).!.~.{.",
"].U U U U U U U U U U V W ^.Y Z ` @.!./.(._.",
":.U U U U U U U U U V W ^.Y <.` @.[./.}.|.1.",
"2.U U 3.*.*.*.U U *.=.;.4.>.'.).5.6.7.8.9.0.",
"a.U U U U U U U U W ^.b.<.` @.[./.}.8.c.d.e.",
"f.U U U U U U U W ^.b.<.g.@.[./.}.8.c.h.i.j.",
"k.U U *.*.*.l.W ^.4.m.,.).5.6.n.o.p.q.r.s.t.",
"u.U U U U U W ^.v.<.g.w.[./.}.x.c.h.r.y.z.t.",
"A.U U U U W ^.v.<.g.w.[./.}.x.c.h.r.y.B.C.t.",
"D.U U *.-.;.E.<.g.).F.6.n.n.p.G.H.I.J.K.L.t.",
"M.U U W ^.v.<.g.w.N.O.}.x.c.h.r.y.B.K.P.Q.t.",
"R.S.T.U.V.W.X.Y.Z.`. +.+++@+#+s.z.C.L.Q.$+t.",
"%+&+*+=+-+;+>+,+'+)+!+~+{+]+t.t.t.t.t.t.t.^+",
"                                            ",
"                                            "};
