/* XPM */
static char * hDiskPerformanceInsert_xpm[] = {
"22 22 2 1",
" 	c None",
".	c #800080",
"                      ",
"                      ",
"     ..........       ",
"    .............     ",
"   ..           ..    ",
"   ..           ..    ",
"   ..           ..    ",
"   ..           ..    ",
"   ..           ..    ",
"   ..           ..    ",
"   ..           ..    ",
"   ..           ..    ",
"   ..           ..    ",
"   ..           ..    ",
"   ..           ..    ",
"   ..           ..    ",
"   ..           ..    ",
"   ..           ..    ",
"    .............     ",
"     ..........       ",
"                      ",
"                      "};
