/* XPM */
static char * hLegendInsert_xpm[] = {
"22 22 20 1",
" 	c None",
".	c #0DF904",
"+	c #000000",
"@	c #000500",
"#	c #000B00",
"$	c #034001",
"%	c #000200",
"&	c #0CF403",
"*	c #0BD603",
"=	c #034901",
"-	c #F90404",
";	c #0AC503",
">	c #000F00",
",	c #034601",
"'	c #0CF503",
")	c #D60303",
"!	c #001000",
"~	c #044E01",
"{	c #0CF203",
"]	c #E40303",
"                      ",
"          .           ",
"          ..          ",
"        ++@#$         ",
"       ++++++%        ",
"       +  &*=++       ",
"          .. ++       ",
"          .  ++       ",
"            ++        ",
"----------;>+,'.......",
"---------)!+~{........",
"         +++          ",
"         ++]----      ",
"         ++-----      ",
"         ++-----      ",
"          ------      ",
"         ++-----      ",
"         ++-----      ",
"                      ",
"..........------------",
"..........------------",
"                      "};
