/* XPM */
static char * hLegendInsert_xpm[] = {
"44 22 6 1",
" 	c None",
".	c #0C2DF8",
"+	c #FF0602",
"@	c #0D2CF6",
"#	c #98166A",
"$	c #000000",
"                                            ",
"                                            ",
" .   .                                      ",
" .. .                    +++    +++++  +++++",
"  ...   ....  ....  ...   +    ++ + + ++ + +",
"   .   .....  .  ....  . ++      ++     ++  ",
"  ...  .      .   ..   . +   +   +      +   ",
" .  .. .. ..  .   ...  @ +  ++   +      +   ",
"..   .  ....  .   . ...#+++++   +++    +++  ",
"                                            ",
"                                            ",
"        $$$     $$$     $$$     $$$         ",
"       $$ $$   $$ $$   $$ $$   $$ $$        ",
"       $   $$  $   $$  $   $$  $   $$       ",
"          $$$     $$$     $$$     $$$       ",
"          $$      $$      $$      $$        ",
"         $$      $$      $$      $$         ",
"         $$      $$      $$      $$         ",
"         $$      $$      $$      $$         ",
"                                            ",
"         $$      $$      $$      $$         ",
"                                            "};
