/* XPM */
static char * hGuiFilterInsert_xpm[] = {
"22 22 3 1",
" 	c None",
".	c #000000",
"r  c #FF0000",
"                      ",
"                      ",
"      .....           ",
"      ..  ..          ",
"      ..   ..         ",
"      ..    ..        ",
"   rrr..     ..       ",
"   rrr..      .       ",
"      ..      ..      ",
"      ..      ..      ",
"      ..      ..rrr   ",
"      ..      ..rrr   ",
"      ..      ..      ",
"      ..      ..      ",
"   rrr..      .       ",
"   rrr..     ..       ",
"      ..    ..        ",
"      ..   ..         ",
"      ..  ..          ",
"      .....           ",
"                      ",
"                      "};
