/* XPM */
static char * hGuiFilterInsert_xpm[] = {
"22 22 5 1",
" 	c None",
".	c #800080",
"r  c #FF0000",
"g  c #00FF00",
"b  c #0000FF",
"                      ",
"                      ",
"      .....           ",
"      ..  ..          ",
"      ..   ..         ",
"      ..    ..        ",
"   .....     ..       ",
"   .....      .       ",
"      ..      ..      ",
"      ..      ..      ",
"      ..      .....   ",
"      ..      .....   ",
"      ..      ..      ",
"      ..      ..      ",
"   .....      .       ",
"   .....     ..       ",
"      ..    ..        ",
"      ..   ..         ",
"      ..  ..          ",
"      .....           ",
"                      ",
"                      "};
