/* XPM */
static char * hGuiControlFlowInsert_xpm[] = {
"22 22 3 1",
" 	c None",
".	c #0DF904",
"+	c #F90404",
"                      ",
"          .           ",
"          ..          ",
"          ...         ",
"          ....        ",
"          ...         ",
"          ..          ",
"          .           ",
"                      ",
"++++++++++............",
"++++++++++............",
"                      ",
"          ++++++      ",
"          ++++++      ",
"          ++++++      ",
"          ++++++      ",
"          ++++++      ",
"          ++++++      ",
"                      ",
"..........++++++++++++",
"..........++++++++++++",
"                      "};
