/* XPM */
static char * hGuiXenoLTTInsert_xpm[] = {
"44 22 3 1",
" 	c None",
".	c #0C2DF8",
"+	c #FF0602",
"                                            ",
"                                            ",
" ..    ...                                  ",
"  ..   ..                                   ",
"  ... ..    ....     ....    .....          ",
"   .....   .  ..   ... ...  ..  ...         ",
"    ...   ..   ..  ..   ..  ..   ..         ",
"   ....   .......  ..   ..  .    ..         ",
"   .....  ..       ..   .. ...   ..         ",
"  ..  ..  ..   ..  ..   ..  ..   ..         ",
" ...   ..  .. ..   ..   ..  ..  ...         ",
"...    ...  ....   ..   ..   .....          ",
"                                            ",
"                   ++++     +++++++  +++++++",
"                  +++++    ++++++++ ++++++++",
"                    +      ++ ++ ++ ++ ++ ++",
"                   ++      +  +  +  +  +  + ",
"                   ++         +        +    ",
"                   ++   +    ++       ++    ",
"                   +    +    ++       ++    ",
"                  +++++++   +++      +++    ",
"                 ++++++++  +++++    +++++   "};
