/* XPM */
static char * FlagSynchOwner_xpm[] = {
"6 13 2 1",
" 	c None",
".	c #FFFA00",
"...   ",
"....  ",
"..... ",
"......",
"..... ",
"....  ",
"...   ",
"..    ",
"..    ",
"..    ",
"..    ",
"..    ",
"..    "};
