/* XPM */
static char * FlagPriority_xpm[] = {
"13 13 2 1",
" 	c None",
".	c #FD0101",
"...       ...",
"....     ....",
".....   .....",
" ..... ..... ",
"  .........  ",
"   .......   ",
"    .....    ",
"   .......   ",
"  .........  ",
" ..... ..... ",
".....   .....",
"....     ....",
"...       ..."};
