/* XPM */
static char * TraceControlPause_xpm[] = {
"22 22 5 1",
" 	c None",
".	c #000000",
"+	c #570404",
"@	c #EE8100",
"#	c #053C0A",
"        .....         ",
"       .......        ",
"      ...+++...       ",
"      ..+++++..       ",
"      ..+++++..       ",
"      ..+++++..       ",
"      ...+++...       ",
"      .........       ",
"      ...@@@...       ",
"      ..@@@@@..       ",
"      ..@@@@@..       ",
"      ..@@@@@..       ",
"      ...@@@...       ",
"      .........       ",
"      ...###...       ",
"      ..#####..       ",
"      ..#####..       ",
"      ..#####..       ",
"       ..###..        ",
"       .......        ",
"       .......        ",
"        .....         "};
