/* XPM */
static char * hGuiEventsInsert_xpm[] = {
"40 40 5 1",
" 	c None",
".	c #000000",
"+	c #6E6E6E",
"@	c #BEBEBE",
"#	c #FFDD00",
"++++++++++++++++++++++++++++++++++++++++",
"+@@@@@@@@@@@@@@@@@....@@@@@@@@@@@@@@@@@+",
"+@@@@@@@@@@@@@@@@......@@@@@@@@@@@@@@@@+",
"+@@@@@@@@@@@@@@@..####..@@@@@@@@@@@@@@@+",
"+@@@@@@@@@@@@@@..######..@@@@@@@@@@@@@@+",
"+@@@@@@@@@@@@@..########..@@@@@@@@@@@@@+",
"+@@@@@@@@@@@@..##########..@@@@@@@@@@@@+",
"+@@@@@@@@@@@..############..@@@@@@@@@@@+",
"+@@@@@@@@@@..#####....#####..@@@@@@@@@@+",
"+@@@@@@@@@..#####......#####..@@@@@@@@@+",
"+@@@@@@@@..######......######..@@@@@@@@+",
"+@@@@@@@..#######......#######..@@@@@@@+",
"+@@@@@@..########......########..@@@@@@+",
"+@@@@@..#........#....##########..@@@@@+",
"+@@@@..##.####....###############..@@@@+",
"+@@@..###.###......###############..@@@+",
"+@@..####.#......#.################..@@+",
"+@..#####.#.....##.#####....########..@+",
"+..######......###.#####.....########..+",
"+..######.....................#######..+",
"+..####..#.....###.#####.....########..+",
"+..#######......########....#########..+",
"+@..######.......############..#####..++",
"+@@..#####...#....###########..####..+@+",
"+@@@..####...##...#########.######..+@@+",
"+@@@@..###...##...#####..##.#.###..+@@@+",
"+@@@@@..##...##...####....###.##..+@@@@+",
"+@@@@@@..#...##..####......####..+@@@@@+",
"+@@@@@@@..#..##...##........##..+@@@@@@+",
"+@@@@@@@@..#.##...##........#..+@@@@@@@+",
"+@@@@@@@@@..################..+@@@@@@@@+",
"+@@@@@@@@@@..##############..+@@@@@@@@@+",
"+@@@@@@@@@@@..############..+@@@@@@@@@@+",
"+@@@@@@@@@@@@..##########..+@@@@@@@@@@@+",
"+@@@@@@@@@@@@@..########..+@@@@@@@@@@@@+",
"+@@@@@@@@@@@@@@..######..+@@@@@@@@@@@@@+",
"+@@@@@@@@@@@@@@@..####..+@@@@@@@@@@@@@@+",
"+@@@@@@@@@@@@@@@@......+@@@@@@@@@@@@@@@+",
"+@@@@@@@@@@@@@@@@@....+@@@@@@@@@@@@@@@@+",
"++++++++++++++++++++++++++++++++++++++++"};
