/* XPM */
static char * guifilter16x16_xpm[] = {
"16 16 6 1",
" 	c None",
".	c #000000",
"+	c #FF0000",
"@	c #440000",
"#	c #510000",
"$	c #4B0000",
"                ",
"     ...        ",
"    .. ..       ",
"    ..  ..      ",
"  ++@.   ..     ",
"  ++#.    .     ",
"    ..    ..    ",
"    ..    .$++  ",
"    ..    .$++  ",
"    ..    ..    ",
"  ++#.    .     ",
"  ++@.   ..     ",
"    ..  ..      ",
"    .. ..       ",
"     ...        ",
"                "};
