/* XPM */
static char *hHistogramInsert_xpm[]={
"22 22 10 1",
"b c None",
". c None",
"f c #0000c0",
"e c #0000ff",
"g c #004000",
"d c #008080",
"a c #00ff00",
"c c #800000",
"# c #808000",
"h c #ffff00",
"......................",
"####aaaaaaaaaaaaaaaaaa",
".....bbbbbb####b......",
"...ccccbbbccccb#b#..##",
"....cc.bbbbcc.b.#.#.#.",
"....cc..bbbcc..ddd.#..",
"....cc..bbbcc.dd.dd...",
"....cc..bbbcc.d...d...",
"....cc..bbbcceeee.dfff",
"....ccccccccc.d...d...",
"....cc..bbbccd....dd..",
"....cc..bbbcc...eeee..",
"....cc..bbbcc......dd.",
"...#cc#####cc.......dd",
"....cc.bbbbcc..bbbbb..",
"...cccc.bbcccc.bbbbb..",
"....bbggbbbbb.ggbbbb..",
"hhhh.ghhghbbbghhghbbhh",
"g.bbbgbbgbbbbgbbg..b..",
"gbbbbgbbgbbbbgbbg..bbg",
".gbhhhhbbghhghb..ghhgb",
"bbgg...b..gg......gg.."};
