/* XPM */
static char *stock_zoom_fit_24[]={
"24 24 189 2",
"Qt c None",
"ae c #000000",
"aF c #000000",
"an c #050505",
".U c #242424",
".s c #373737",
".G c #4f4f4f",
".h c #5d5d5d",
"aS c #000000",
"a6 c #000000",
"at c #000000",
"aQ c #000000",
"ad c #000000",
"au c #030303",
"#8 c #0c0c0c",
"#j c #121212",
".F c #232323",
"#. c #303030",
".g c #353535",
".t c #404040",
".# c #494949",
"aE c #000000",
"#7 c #000000",
"#s c #090909",
"#1 c #0a0a0a",
"#k c #1b1b1b",
".f c #262626",
".a c #343434",
"am c #000000",
"aG c #010101",
"af c #060606",
".9 c #0f0f0f",
".r c #1c1c1c",
".V c #212121",
".i c #2e2e2e",
"aR c #000000",
"#0 c #020202",
"#A c #060606",
"#V c #0b0b0b",
"#t c #141414",
".e c #262626",
".b c #2d2d2d",
"aN c #000000",
"a4 c #000000",
"aW c #000000",
"aO c #000000",
"aC c #000000",
"aD c #000000",
"aP c #000000",
"aT c #202020",
"a1 c #000000",
"aU c #202020",
"aV c #000000",
"aY c #343434",
"a2 c #000000",
"as c #000000",
"av c #030303",
"#U c #050505",
"#J c #060606",
"#K c #0e0e0e",
".T c #101010",
"#B c #111111",
".E c #131313",
"a3 c #1f1f1f",
".H c #222222",
".d c #262626",
".u c #272727",
".c c #292929",
"aX c #686868",
"a0 c #3a3a3a",
"a5 c #000000",
"aZ c #797979",
"aM c #000000",
"ac c #020202",
"aH c #030303",
"#9 c #0a0a0a",
"#i c #0e0e0e",
"## c #1f1f1f",
".q c #202020",
"aB c #2b2b2b",
"al c #2e2e2e",
".j c #303030",
"aw c #313131",
"ag c #3b3b3b",
"aL c #3c3c3c",
"aj c #414141",
".8 c #434343",
"ai c #444444",
"aa c #454545",
".Y c #464646",
"a# c #474747",
"#5 c #484848",
"a. c #494949",
".6 c #4a4a4a",
".Z c #4b4b4b",
".D c #4c4c4c",
"#f c #4d4d4d",
"#p c #4e4e4e",
".5 c #4f4f4f",
".0 c #505050",
".4 c #515151",
".1 c #525252",
"#c c #535353",
"#r c #575757",
".W c #5b5b5b",
".S c #5e5e5e",
"#2 c #5f5f5f",
".v c #616161",
".p c #676767",
"#l c #6d6d6d",
".k c #737373",
".I c #757575",
"aK c #777777",
"aI c #7a7a7a",
"aA c #909090",
"#Z c #939393",
"ax c #999999",
"aJ c #9a9a9a",
"#z c #9b9b9b",
".o c #9d9d9d",
".l c #a1a1a1",
"#W c #a5a5a5",
".C c #a7a7a7",
"#u c #a8a8a8",
"#h c #ababab",
".n c #b2b2b2",
".m c #b4b4b4",
"az c #b6b6b6",
"ar c #b8b8b8",
"#a c #b9b9b9",
"#T c #bababa",
"ay c #bbbbbb",
".R c #bcbcbc",
"ak c #bdbdbd",
"#I c #bfbfbf",
".B c #c1c1c1",
".7 c #c2c2c2",
"#C c #c5c5c5",
"#L c #c6c6c6",
"ao c #c7c7c7",
"aq c #c8c8c8",
".A c #c9c9c9",
".w c #cacaca",
"ab c #cbcbcb",
".X c #cccccc",
"ap c #cdcdcd",
".z c #cecece",
".x c #cfcfcf",
".y c #d0d0d0",
"#Y c #d1d1d1",
".Q c #d2d2d2",
".J c #d3d3d3",
"#6 c #d4d4d4",
"#b c #d6d6d6",
"#S c #d7d7d7",
"#v c #d8d8d8",
"#3 c #d9d9d9",
"ah c #dadada",
".K c #dbdbdb",
"#y c #dcdcdc",
"#D c #dfdfdf",
"#R c #e0e0e0",
"#m c #e1e1e1",
"#M c #e3e3e3",
"#g c #e4e4e4",
".P c #e5e5e5",
"#q c #e6e6e6",
".L c #e7e7e7",
"#4 c #e9e9e9",
"#Q c #eaeaea",
"#N c #ececec",
"#H c #ededed",
"#w c #eeeeee",
".M c #efefef",
"#P c #f0f0f0",
".O c #f1f1f1",
"#G c #f2f2f2",
".N c #f3f3f3",
"#O c #f4f4f4",
"#E c #f5f5f5",
"#X c #f6f6f6",
"#F c #f7f7f7",
"#x c #f8f8f8",
"#o c #f9f9f9",
".3 c #fafafa",
".2 c #fbfbfb",
"#e c #fcfcfc",
"#d c #fdfdfd",
"#n c #fefefe",
"QtQtQtQtQtQtQtQtQtQtQtQtQtQtQtQtQtQtQtQtQtQtQtQt",
"QtQtQtQtQtQt.#.a.b.c.d.e.f.gQtQtQtQtQtQtQtQtQtQt",
"QtQtQtQt.h.i.j.k.l.m.n.o.p.q.r.sQtQtQtQtQtQtQtQt",
"QtQtQt.t.u.v.m.w.x.y.z.A.B.C.D.E.FQtQtQtQtQtQtQt",
"QtQt.G.H.I.w.J.K.L.M.N.O.P.Q.R.S.T.UQtQtQtQtQtQt",
"QtQt.V.W.X.Y.Z.0.1.2.3.4.0.5.6.7.8.9QtQtQtQtQtQt",
"Qt#.###a#b.D.1.1#c#d#e.1.4.5#f#g#h#i#jQtQtQtQtQt",
"Qt#k#l.Q#m.0.1#d#n#n#d#e#o.0#p#q.K#r#sQtQtQtQtQt",
"Qt#t#u#v#w.4.1#e#n#n#d.2#x.0#p#q#y#z#AQtQtQtQtQt",
"Qt#B#C#D.M#E#x.2#d#d#e.3#F#G#H.P.K#I#JQtQtQtQtQt",
"Qt#K#L#M#N#G#E#x.3.3.3#F#O#P#Q#R#S#T#UQtQtQtQtQt",
"Qt#V#W#m.L#p.5#O#X#X#E.N.M#f.Z.K#Y#Z#0QtQtQtQtQt",
"Qt#1#2#3#m.Z#f#w.M.M#w#H#4.Z#5#6.w.D#7QtQtQtQtQt",
"Qt#8#9.m#v#5.6.Z.Z#q.L.6a.a#aaab.lacadQtQtQtQtQt",
"Qtaeafag.Xaaaaa##5ah.Ka#.YaiajakalamQtQtQtQtQtQt",
"QtQtan#U.4.7aoab.Xapababaq.7araaasatQtQtQtQtQtQt",
"QtQtaeauavawaxayak.R.R.RazaAaBasaCaDaEQtQtQtQtQt",
"QtQtQtaeaFaGaHajaIaJaJaKaLaMamaFaNaOaPaNaQQtQtQt",
"QtQtQtQtQtaead#7aRasasaR#7adaSaeaeaTaUaVaCaSQtQt",
"QtQtQtQtQtQtQtaeaeaeaeaeaeaeQtQtaeaWaXaYaDaVaeQt",
"QtQtQtQtQtQtQtQtQtQtQtQtQtQtQtQtQtaeaPaZa0aPa1ae",
"QtQtQtQtQtQtQtQtQtQtQtQtQtQtQtQtQtaeaea2aXa3a1ae",
"QtQtQtQtQtQtQtQtQtQtQtQtQtQtQtQtQtQtaeaea4a5a6ae",
"QtQtQtQtQtQtQtQtQtQtQtQtQtQtQtQtQtQtQtaeaeaeQtQt"};
