/* XPM */
static char *stock_zoom_out_24[]={
"24 24 180 2",
"Qt c None",
"#8 c #000000",
"aw c #000000",
"ae c #050505",
".U c #242424",
".s c #373737",
".G c #4f4f4f",
".h c #5d5d5d",
"aJ c #000000",
"aX c #000000",
"ak c #000000",
"aH c #000000",
"#7 c #000000",
"al c #030303",
"#1 c #0c0c0c",
"#i c #121212",
".F c #232323",
".8 c #303030",
".g c #353535",
".t c #404040",
".# c #494949",
"av c #000000",
"#0 c #000000",
"#p c #090909",
"#U c #0a0a0a",
"#j c #1b1b1b",
".f c #262626",
".a c #343434",
"ad c #000000",
"ax c #010101",
"#9 c #060606",
".7 c #0f0f0f",
".r c #1c1c1c",
".V c #212121",
".i c #2e2e2e",
"aI c #000000",
"#T c #020202",
"#x c #060606",
"#P c #0b0b0b",
"#q c #141414",
".e c #262626",
".b c #2d2d2d",
"aE c #000000",
"aV c #000000",
"aN c #000000",
"aF c #000000",
"at c #000000",
"au c #000000",
"aG c #000000",
"aK c #202020",
"aS c #000000",
"aL c #202020",
"aM c #000000",
"aP c #343434",
"aT c #000000",
"aj c #000000",
"am c #030303",
"#O c #050505",
"#G c #060606",
"#H c #0e0e0e",
".T c #101010",
"#y c #111111",
".E c #131313",
"aU c #1f1f1f",
".H c #222222",
".d c #262626",
".u c #272727",
".c c #292929",
"aO c #686868",
"aR c #3a3a3a",
"aW c #000000",
"aQ c #797979",
"aD c #000000",
"#6 c #020202",
"ay c #030303",
"#2 c #0a0a0a",
"#h c #0e0e0e",
".9 c #1f1f1f",
".q c #202020",
"as c #2b2b2b",
"ac c #2e2e2e",
".j c #303030",
"an c #313131",
"a. c #3b3b3b",
"aC c #3c3c3c",
"#K c #414141",
"#D c #424242",
".6 c #434343",
"#B c #444444",
"#C c #454545",
".D c #4c4c4c",
"af c #515151",
"#o c #575757",
".W c #5b5b5b",
".S c #5e5e5e",
"#V c #5f5f5f",
".v c #616161",
".p c #676767",
"#k c #6d6d6d",
".k c #737373",
".I c #757575",
"aB c #777777",
"az c #7a7a7a",
"ar c #909090",
"#S c #939393",
"ao c #999999",
"aA c #9a9a9a",
"#w c #9b9b9b",
".o c #9d9d9d",
".l c #a1a1a1",
"#Q c #a5a5a5",
".C c #a7a7a7",
"#r c #a8a8a8",
"#g c #ababab",
".n c #b2b2b2",
".m c #b4b4b4",
"aq c #b6b6b6",
"ai c #b8b8b8",
"#. c #b9b9b9",
"#N c #bababa",
"ap c #bbbbbb",
".R c #bcbcbc",
"ab c #bdbdbd",
"#F c #bfbfbf",
".B c #c1c1c1",
".5 c #c2c2c2",
"#z c #c5c5c5",
"#I c #c6c6c6",
"ag c #c7c7c7",
"aa c #c8c8c8",
".A c #c9c9c9",
".w c #cacaca",
"#5 c #cbcbcb",
".X c #cccccc",
"ah c #cdcdcd",
".z c #cecece",
".x c #cfcfcf",
".y c #d0d0d0",
"#R c #d1d1d1",
".Q c #d2d2d2",
".J c #d3d3d3",
"#Z c #d4d4d4",
"a# c #d5d5d5",
"## c #d6d6d6",
".Y c #d7d7d7",
"#s c #d8d8d8",
"#W c #d9d9d9",
"#4 c #dadada",
".K c #dbdbdb",
"#v c #dcdcdc",
"#A c #dfdfdf",
"#M c #e0e0e0",
".4 c #e1e1e1",
"#3 c #e2e2e2",
"#J c #e3e3e3",
"#f c #e4e4e4",
".P c #e5e5e5",
"#n c #e6e6e6",
".L c #e7e7e7",
"#Y c #e9e9e9",
"#L c #eaeaea",
"#X c #ebebeb",
"#e c #ececec",
"#E c #ededed",
"#m c #eeeeee",
".M c #efefef",
".3 c #f0f0f0",
".O c #f1f1f1",
"#d c #f2f2f2",
".N c #f3f3f3",
"#u c #f4f4f4",
".Z c #f5f5f5",
"#t c #f6f6f6",
".2 c #f8f8f8",
"#a c #f9f9f9",
".0 c #fafafa",
".1 c #fbfbfb",
"#c c #fcfcfc",
"#b c #fdfdfd",
"#l c #fefefe",
"QtQtQtQtQtQtQtQtQtQtQtQtQtQtQtQtQtQtQtQtQtQtQtQt",
"QtQtQtQtQtQt.#.a.b.c.d.e.f.gQtQtQtQtQtQtQtQtQtQt",
"QtQtQtQt.h.i.j.k.l.m.n.o.p.q.r.sQtQtQtQtQtQtQtQt",
"QtQtQt.t.u.v.m.w.x.y.z.A.B.C.D.E.FQtQtQtQtQtQtQt",
"QtQt.G.H.I.w.J.K.L.M.N.O.P.Q.R.S.T.UQtQtQtQtQtQt",
"QtQt.V.W.X.Y.P.Z.0.1.0.2.Z.3.4.5.6.7QtQtQtQtQtQt",
"Qt.8.9#.##.L#a.1#b#b#c.1.2#d#e#f#g#h#iQtQtQtQtQt",
"Qt#j#k.Q.4.Z.0#b#l#l#b#c#a.Z#m#n.K#o#pQtQtQtQtQt",
"Qt#q#r#s#m#t#a#c#l#l#b.1.2#u#m#n#v#w#xQtQtQtQtQt",
"Qt#y#z#A.M.Z#B#B#C#C#C#B.6#D#E.P.K#F#GQtQtQtQtQt",
"Qt#H#I#J#e#d.6#B#B#B#B.6#D#K#L#M.Y#N#OQtQtQtQtQt",
"Qt#P#Q.4.L#E.O#u#t#t.Z.N.M#e#f.K#R#S#TQtQtQtQtQt",
"Qt#U#V#W.4#n#X#m.M.M#m#E#Y#f.K#Z.w.D#0QtQtQtQtQt",
"Qt#1#2.m#s#v#3.P#n#n.L#J#A#4#Z#5.l#6#7QtQtQtQtQt",
"Qt#8#9a..X.Q#Z#4.K#4.K#sa#.yaaabacadQtQtQtQtQtQt",
"QtQtae#Oaf.5ag#5.Xah#5#5aa.5ai#CajakQtQtQtQtQtQt",
"QtQt#8alamanaoapab.R.R.RaqarasajatauavQtQtQtQtQt",
"QtQtQt#8awaxay#KazaAaAaBaCaDadawaEaFaGaEaHQtQtQt",
"QtQtQtQtQt#8#7#0aIajajaI#0#7aJ#8#8aKaLaMataJQtQt",
"QtQtQtQtQtQtQt#8#8#8#8#8#8#8QtQt#8aNaOaPauaM#8Qt",
"QtQtQtQtQtQtQtQtQtQtQtQtQtQtQtQtQt#8aGaQaRaGaS#8",
"QtQtQtQtQtQtQtQtQtQtQtQtQtQtQtQtQt#8#8aTaOaUaS#8",
"QtQtQtQtQtQtQtQtQtQtQtQtQtQtQtQtQtQt#8#8aVaWaX#8",
"QtQtQtQtQtQtQtQtQtQtQtQtQtQtQtQtQtQtQt#8#8#8QtQt"};
